<?xml version="1.0" standalone="no"?>
<!DOCTYPE svg PUBLIC "-//W3C//DTD SVG 20010904//EN"
 "http://www.w3.org/TR/2001/REC-SVG-20010904/DTD/svg10.dtd">
<svg version="1.0" xmlns="http://www.w3.org/2000/svg"
 width="726.000000pt" height="980.000000pt" viewBox="0 0 726.000000 980.000000"
 preserveAspectRatio="xMidYMid meet">

<g transform="translate(0.000000,980.000000) scale(0.100000,-0.100000)"
fill="#1DBF73" stroke="none">
<path d="M1085 9372 c-819 -493 -1021 -617 -1053 -649 -38 -38 -37 -86 53
-1808 69 -1322 83 -1508 124 -1599 17 -40 25 -46 75 -62 l56 -18 0 -617 0
-618 249 -621 250 -621 -29 -452 c-40 -623 -52 -875 -41 -895 21 -37 255 -258
871 -821 l645 -590 1427 0 1426 -1 454 412 c566 514 924 846 1006 931 l62 65
0 135 c0 75 -4 202 -10 284 -5 81 -21 324 -35 538 l-25 390 250 625 250 625 0
360 c0 787 33 1627 135 3505 24 442 31 816 15 835 -33 40 -379 267 -1158 759
l-533 336 -1877 0 -1877 -1 -710 -427z m3968 99 l408 -6 730 -460 731 -460 -6
-195 c-16 -497 -130 -2668 -145 -2740 -6 -33 -9 -35 -44 -34 -20 0 -98 1 -172
2 l-135 2 -1 513 c-1 281 -5 795 -8 1141 l-6 629 -135 97 c-158 113 -385 269
-855 587 l-340 230 -1380 6 -1380 6 -275 -171 c-557 -347 -760 -476 -965 -613
-168 -113 -211 -146 -219 -170 -6 -18 -12 -464 -15 -1145 l-6 -1115 -176 -3
-176 -2 -7 142 c-7 137 -71 1388 -101 1973 -25 480 -38 823 -32 838 7 17 207
142 977 604 l585 352 1370 -1 c754 0 1554 -4 1778 -7z m-513 -1026 c0 -3 -85
-175 -189 -383 -306 -613 -321 -655 -251 -727 54 -56 145 -70 204 -31 34 22
90 123 314 561 215 423 302 585 311 585 30 0 267 -159 277 -185 3 -8 -53 -141
-124 -297 -483 -1054 -682 -1505 -682 -1541 1 -49 35 -114 72 -137 41 -26 140
-24 182 4 34 22 82 122 458 946 161 353 380 816 393 828 8 8 115 -61 351 -224
l221 -153 6 -182 c4 -100 7 -577 7 -1061 l0 -878 -2457 2 -2458 3 -2 1055 -3
1055 613 382 612 383 1073 0 c589 0 1072 -2 1072 -5z m-1210 -3210 c0 -5 -203
-815 -236 -942 l-16 -63 -963 0 -962 0 -6 48 c-14 114 -117 900 -122 930 l-6
32 1156 0 c635 0 1155 -2 1155 -5z m1246 -93 c-13 -172 35 -305 149 -419 217
-217 563 -187 741 63 84 118 114 248 90 391 l-8 51 88 7 c89 8 582 0 591 -9 9
-9 -112 -958 -124 -975 -10 -15 -100 -16 -969 -16 l-957 0 -122 490 c-68 270
-121 492 -119 494 12 13 117 19 368 20 l279 1 -7 -98z m604 70 c80 -58 78
-206 -4 -282 -25 -22 -36 -25 -106 -25 -64 0 -84 4 -107 21 -41 30 -57 70 -57
144 0 96 26 136 103 161 40 13 143 1 171 -19z m1584 -564 l-7 -593 -250 -620
-249 -620 26 -415 c43 -679 49 -795 42 -824 -4 -15 -41 -63 -84 -108 -119
-125 -1078 -1001 -1210 -1106 l-54 -42 -1267 0 -1267 0 -45 37 c-96 82 -1123
1011 -1251 1133 l-58 55 41 635 42 635 -256 637 -257 636 0 495 c0 512 5 650
24 644 6 -2 38 -223 77 -536 89 -710 91 -717 158 -770 l36 -28 965 -6 c531 -4
977 -9 992 -13 32 -7 39 15 -76 -247 -109 -252 -138 -333 -131 -368 4 -16 27
-51 52 -79 l45 -50 534 0 534 0 0 160 0 160 -272 1 c-276 1 -441 8 -453 21 -4
4 45 127 107 275 142 333 142 331 173 483 44 210 182 728 205 769 4 7 10 9 13
4 3 -5 58 -211 121 -459 150 -588 159 -613 223 -636 31 -10 253 -13 1173 -13
1065 0 1137 1 1170 18 20 9 43 30 52 45 21 35 57 262 113 713 54 439 68 525
91 550 14 16 31 19 101 19 l85 0 -8 -592z"/>
<path d="M3225 2674 c-667 -124 -942 -178 -953 -187 -7 -6 -11 -22 -8 -36 3
-14 15 -82 27 -151 12 -69 23 -126 24 -128 2 -2 124 20 271 47 554 103 685
124 711 110 13 -7 49 -44 81 -83 85 -105 164 -186 194 -202 35 -18 82 -18 116
0 34 18 104 92 165 172 50 66 111 124 130 124 13 0 244 -40 631 -109 127 -23
253 -41 282 -41 l52 0 15 68 c21 90 40 223 34 229 -16 16 -923 179 -1102 198
-53 5 -64 3 -91 -17 -32 -24 -79 -75 -133 -145 -18 -24 -36 -43 -41 -43 -4 0
-33 33 -63 74 -61 81 -103 117 -156 135 -40 13 -25 14 -186 -15z"/>
<path d="M3220 1520 l0 -170 415 0 415 0 0 170 0 170 -415 0 -415 0 0 -170z"/>
</g>
</svg>
